<?xml version="1.0" encoding="utf-8"?>
<!-- Generator: Adobe Illustrator 16.0.0, SVG Export Plug-In . SVG Version: 6.00 Build 0)  -->
<!DOCTYPE svg PUBLIC "-//W3C//DTD SVG 1.0//EN" "http://www.w3.org/TR/2001/REC-SVG-20010904/DTD/svg10.dtd">
<svg version="1.0" id="Layer_1" xmlns="http://www.w3.org/2000/svg" xmlns:xlink="http://www.w3.org/1999/xlink" x="0px" y="0px"
	 width="800px" height="800px" viewBox="0 0 800 800" enable-background="new 0 0 800 800" xml:space="preserve">
<g>
	<path fill="#757575" d="M602.011,439.173l29.269-77.609h11.273l29.262,77.609h-11.053l-7.479-21.028h-32.625l-7.587,21.028H602.011
		L602.011,439.173z M624.015,408.822h25.797l-12.682-35.011h-0.434L624.015,408.822L624.015,408.822z M699.783,440.908
		c-6.866,0-12.791-2.711-17.777-8.13c-4.984-5.422-7.477-12.141-7.477-20.163c0-8.019,2.492-14.741,7.477-20.16
		c4.986-5.42,10.911-8.13,17.777-8.13c4.05,0,7.682,0.868,10.896,2.602c3.212,1.734,5.616,3.902,7.206,6.503h0.431l-0.431-7.371
		v-24.496h9.972v77.609h-9.541v-7.372h-0.431c-1.59,2.603-3.994,4.771-7.212,6.505C707.453,440.037,703.833,440.908,699.783,440.908
		z M701.408,431.801c4.697,0,8.689-1.733,11.979-5.201c3.289-3.469,4.929-8.13,4.929-13.984s-1.643-10.512-4.929-13.984
		c-3.287-3.467-7.282-5.201-11.979-5.201c-4.623,0-8.601,1.753-11.924,5.255c-3.322,3.501-4.986,8.154-4.986,13.93
		s1.664,10.427,4.986,13.928C692.808,430.044,696.785,431.801,701.408,431.801z M759.184,440.908
		c-5.927,0-10.823-1.449-14.686-4.336c-3.865-2.891-6.711-6.505-8.512-10.841l8.888-3.684c2.815,6.645,7.622,9.971,14.416,9.971
		c3.108,0,5.654-0.689,7.642-2.062c1.979-1.372,2.981-3.179,2.981-5.416c0-3.471-2.422-5.818-7.265-7.047l-10.73-2.604
		c-3.394-0.864-6.611-2.511-9.645-4.933c-3.036-2.421-4.554-5.689-4.554-9.806c0-4.7,2.073-8.513,6.236-11.44
		c4.159-2.925,9.084-4.387,14.791-4.387c4.7,0,8.888,1.064,12.574,3.196c3.685,2.129,6.325,5.183,7.915,9.161l-8.673,3.577
		c-1.95-4.698-6.001-7.045-12.141-7.045c-2.964,0-5.458,0.613-7.479,1.842c-2.022,1.23-3.033,2.889-3.033,4.986
		c0,3.037,2.345,5.097,7.045,6.18l10.516,2.493c4.984,1.154,8.668,3.143,11.052,5.961c2.386,2.818,3.578,6,3.578,9.538
		c0,4.771-1.95,8.744-5.851,11.923C770.346,439.318,765.321,440.908,759.184,440.908z"/>
	<g>
		<g>
			<path fill="#757575" d="M266.845,440.766c-24.035,0-44.771-19.794-44.771-43.829c0-24.035,20.265-43.829,44.771-43.829
				c13.195,0,23.092,5.185,30.162,12.253l-8.483,8.483c-5.184-4.712-12.253-8.483-21.679-8.483
				c-17.438,0-31.574,14.138-31.574,32.047c0,17.909,13.666,32.047,31.574,32.047c11.311,0,17.908-4.715,22.149-8.956
				c3.3-3.298,5.655-8.484,6.599-15.081h-28.748v-11.782h40.529c0.471,2.356,0.471,4.713,0.471,7.541
				c0,8.953-2.355,20.266-10.368,28.278C289.465,436.524,279.568,440.766,266.845,440.766z M370.054,412.487
				c0,16.498-12.726,28.278-27.805,28.278c-15.554,0-27.806-11.78-27.806-28.278c0-16.494,12.724-28.275,27.806-28.275
				C357.8,384.212,370.054,396.466,370.054,412.487z M357.8,412.487c0-10.366-7.068-16.965-15.551-16.965
				c-8.483,0-15.554,7.07-15.554,16.965c0,9.897,7.07,16.969,15.554,16.969C350.731,429.928,357.8,422.856,357.8,412.487z
				 M432.733,412.487c0,16.498-12.726,28.278-27.808,28.278c-15.55,0-27.804-11.78-27.804-28.278
				c0-16.494,12.725-28.275,27.804-28.275C420.008,384.212,432.733,396.466,432.733,412.487z M420.479,412.487
				c0-10.366-7.07-16.965-15.553-16.965s-15.55,7.07-15.55,16.965c0,9.897,7.067,16.969,15.55,16.969
				C412.937,429.928,420.479,422.856,420.479,412.487z M493.526,386.097v50.899c0,20.735-12.254,29.69-26.861,29.69
				c-13.671,0-22.152-9.427-24.979-16.498l10.838-4.711c1.888,4.711,6.6,9.897,14.142,9.897c9.424,0,15.079-5.657,15.079-16.495
				v-4.24h-0.472c-2.827,3.298-8.011,6.597-15.079,6.597c-14.141,0-26.864-12.251-26.864-28.278
				c0-16.021,13.194-28.274,26.864-28.274c6.598,0,12.252,2.829,15.079,6.126h0.472v-4.713H493.526z M482.686,412.958
				c0-9.895-6.597-17.436-15.078-17.436c-8.484,0-15.555,7.07-15.555,17.436c0,9.898,7.07,16.97,15.555,16.97
				C476.089,429.928,482.686,422.385,482.686,412.958z M515.204,355.936v82.944h-12.251v-82.944H515.204z M564.215,421.914
				l9.427,6.6c-3.298,4.712-10.369,12.723-23.563,12.723c-16.024,0-27.807-12.251-27.807-28.278
				c0-16.965,11.782-28.274,26.394-28.274c14.606,0,21.678,11.782,24.033,17.908l1.413,3.299l-37.701,15.553
				c2.827,5.657,7.542,8.484,13.668,8.484C556.204,429.928,560.916,426.629,564.215,421.914L564.215,421.914z M534.526,411.545
				l25.447-10.367c-1.413-3.298-5.653-6.126-10.366-6.126C543.011,395.051,534.055,400.708,534.526,411.545L534.526,411.545z"/>
		</g>
	</g>
	<g>
		<path fill="#FBBC04" d="M23.038,422.156l45.378-77.686c5.765,3.392,34.827,19.477,39.517,22.535l-45.374,77.684
			C57.601,451.245,16.756,432.104,23.038,422.156z"/>
		<path fill="#4285F4" d="M153.513,422.156l-45.373-77.686c-6.344-10.553-20.005-14.388-31.227-8.154
			c-11.22,6.234-14.638,19.667-8.294,30.693l45.373,77.685c6.344,10.551,20.007,14.387,31.228,8.153
			c10.734-6.235,14.637-20.142,8.293-30.689V422.156z"/>
		<ellipse fill="#34A853" cx="42.676" cy="433.639" rx="22.776" ry="22.21"/>
	</g>
</g>
</svg>
